<?xml version="1.0" standalone="no"?>
<!DOCTYPE svg PUBLIC "-//W3C//DTD SVG 20010904//EN" "http://www.w3.org/TR/2001/REC-SVG-20010904/DTD/svg10.dtd">
<!-- Created using Krita: https://krita.org -->
<svg xmlns="http://www.w3.org/2000/svg" 
    xmlns:xlink="http://www.w3.org/1999/xlink"
    xmlns:krita="http://krita.org/namespaces/svg/krita"
    xmlns:sodipodi="http://sodipodi.sourceforge.net/DTD/sodipodi-0.dtd"
    width="1474.56pt"
    height="1474.56pt"
    viewBox="0 0 1474.56 1474.56">
<defs/>
<path id="shape0" transform="matrix(0.822735023726521 0 0 0.822735023726521 749.204841397842 370.449933890529)" fill="#46b527" fill-rule="evenodd" stroke="#46b527" stroke-width="28.8" stroke-linecap="square" stroke-linejoin="bevel" d="M0 486L1.13687e-13 732.24C138.983 803.849 271.767 931.182 455.04 717.12C671.312 717.948 700.93 497.846 692.64 296.64C708.679 197.76 688.391 98.88 677.52 0L0 507.6"/><path id="shape01" transform="matrix(0.822734991033971 0 0 0.822734991033971 173.67123886717 251.383740472303)" fill="#46b527" fill-rule="evenodd" stroke="#46b527" stroke-width="27.576" stroke-linecap="square" stroke-linejoin="bevel" d="M708.177 531.36L700.257 938.16C552.149 990.594 478.377 1050.72 332.337 935.28C251.248 923.115 72.2078 970.092 29.217 635.04C17.8801 529.92 -5.3986 435.6 1.137 330.48C11.9605 241.026 45.2191 148.912 94.1532 88.999C111.769 63.0611 148.095 21.6945 173.937 0L708.177 532.44"/><path id="shape1" transform="matrix(0.822734991033971 0 0 0.822734991033971 314.998192219046 39.4930188161972)" fill="#46b527" fill-rule="evenodd" stroke="#46b527" stroke-width="27.576" stroke-linecap="square" stroke-linejoin="bevel" d="M1190.16 400.104L1136.16 441.144L568.08 866.664L527.76 745.704L403.92 648.504L70.2 323.424L0 248.904L75.6 214.344C180.853 62.0769 251.569 46.7077 421.2 13.4643C596.496 -17.5994 782.43 -3.39503 876.96 147.384L818.64 181.944C964.268 141.46 1032.93 213.463 1105.92 279.144L1192.59 393.355"/><path id="shape2" transform="matrix(0.822734991033971 0 0 0.822734991033971 749.204817294278 573.040181523443)" fill="none" stroke="#000000" stroke-width="64.8" stroke-linecap="round" stroke-linejoin="miter" stroke-miterlimit="0" d="M0 789.84L0 0"/><path id="shape3" transform="matrix(0.822734991033971 0 0 0.822734991033971 771.714811129305 420.208946650513)" fill="none" stroke="#000000" stroke-width="43.2" stroke-linecap="round" stroke-linejoin="miter" stroke-miterlimit="0" d="M0 434.16L570.24 0"/><path id="shape4" transform="matrix(0.821072776792934 -0.0522719875383325 0.0522719875383325 0.821072776792934 341.654804968679 283.371667869064)" fill="none" stroke="#000000" stroke-width="43.2" stroke-linecap="round" stroke-linejoin="miter" stroke-miterlimit="0" d="M444.573 494.207C292.254 326.322 152.319 167.884 0 0"/><path id="shape5" transform="matrix(0.822734991033971 0 0 0.822734991033971 434.151095260877 1003.10023834686)" fill="none" stroke="#000000" stroke-width="28.8" stroke-linecap="round" stroke-linejoin="miter" stroke-miterlimit="0" d="M382.935 0C285.116 140.38 94.1085 122.785 0 22.7175"/><path id="shape6" transform="matrix(0.822734991033971 0 0 0.822734991033971 186.892089712487 718.763086774424)" fill="none" stroke="#000000" stroke-width="28.8" stroke-linecap="round" stroke-linejoin="miter" stroke-miterlimit="0" d="M382.508 319.68C190.84 488.402 -37.5698 229.163 5.22764 0"/><path id="shape7" transform="matrix(0.815801913985802 0.106583782109521 -0.106583782109521 0.815801913985802 201.96867240056 197.437667943245)" fill="none" stroke="#000000" stroke-width="28.8" stroke-linecap="round" stroke-linejoin="miter" stroke-miterlimit="0" d="M100.389 664.127C-95.989 462.756 14.6206 -41.0786 268.875 2.67943"/><path id="shape8" transform="matrix(0.822734991033971 0 0 0.822734991033971 363.128203794266 23.3063429905477)" fill="none" stroke="#000000" stroke-width="28.8" stroke-linecap="round" stroke-linejoin="miter" stroke-miterlimit="0" d="M0 239.239C149.401 -38.8423 721.424 -90.1704 832.14 168.499"/><path id="shape9" transform="matrix(0.822734991033971 0 0 0.822734991033971 943.501886536993 166.266817821546)" fill="none" stroke="#000000" stroke-width="28.8" stroke-linecap="round" stroke-linejoin="miter" stroke-miterlimit="0" d="M0 14.8961C407.159 -98.6852 578.698 471.359 437.04 571.096"/><path id="shape10" transform="matrix(0.822734991033971 0 0 0.822734991033971 1116.80295097586 627.635622653694)" fill="none" stroke="#000000" stroke-width="28.8" stroke-linecap="round" stroke-linejoin="miter" stroke-miterlimit="0" d="M245.52 0C343.129 198.621 129.247 489.076 0 416.16"/><path id="shape11" transform="matrix(0.822734991033971 0 0 0.822734991033971 768.160596168713 978.228376035026)" fill="none" stroke="#000000" stroke-width="28.8" stroke-linecap="round" stroke-linejoin="miter" stroke-miterlimit="0" d="M438.396 0C218.632 234.507 103.739 75.6677 0 8.63065"/><path id="shape12" transform="matrix(0.822734991033971 0 0 0.822734991033971 300.781328259829 244.275296785311)" fill="none" stroke="#000000" stroke-width="0.0072" stroke-linecap="square" stroke-linejoin="miter" stroke-miterlimit="2" d="M34.56 34.56L0 0"/><path id="shape13" transform="matrix(0.822734991033971 0 0 0.822734991033971 1269.30490140046 374.004142361946)" fill="none" stroke="#000000" stroke-width="0.0072" stroke-linecap="square" stroke-linejoin="miter" stroke-miterlimit="2" d="M0 34.56L47.52 0"/><text id="shape11" krita:useRichText="true" transform="matrix(0.999999960263572 0 0 0.999999960263572 420.479974573163 1382.43988440835)" fill="#000000" stroke="#000000" stroke-opacity="0" stroke-width="0" stroke-linecap="square" stroke-linejoin="bevel" font-family="Comic Sans MS" font-size="180" font-size-adjust="0.173913" font-stretch="normal" letter-spacing="0" word-spacing="0"><tspan x="0">EcoSurf</tspan></text>
</svg>