<?xml version="1.0" standalone="no"?>
<!DOCTYPE svg PUBLIC "-//W3C//DTD SVG 20010904//EN" "http://www.w3.org/TR/2001/REC-SVG-20010904/DTD/svg10.dtd">
<!-- Created using Krita: https://krita.org -->
<svg xmlns="http://www.w3.org/2000/svg" 
    xmlns:xlink="http://www.w3.org/1999/xlink"
    xmlns:krita="http://krita.org/namespaces/svg/krita"
    xmlns:sodipodi="http://sodipodi.sourceforge.net/DTD/sodipodi-0.dtd"
    width="1474.56pt"
    height="1474.56pt"
    viewBox="0 0 1474.56 1474.56">
<defs/>
<path id="shape0" transform="matrix(1.25197336911126 0 0 1.73249544065808 150.493125026362 708.343456824177)" fill="none" stroke="#000000" stroke-width="180" stroke-linecap="round" stroke-linejoin="miter" stroke-miterlimit="2.16000008583069" d="M0 42.9842C215.242 166.527 763.765 -98.8968 941.76 42.9842"/><path id="shape01" transform="matrix(1.25197335495379 0 0 1.73249542106679 158.638379034271 1177.49838524451)" fill="#000000" stroke="#34bc06" stroke-width="180" stroke-linecap="round" stroke-linejoin="miter" stroke-miterlimit="2.16000008583069" d="M0 42.9842C215.242 166.527 763.765 -98.8968 941.76 42.9842"/><path id="shape01" transform="matrix(1.2506668591799 0.0571810540620428 -0.0791278136569595 1.73068747688256 57.698695370898 263.297955167789)" fill="none" stroke="#000000" stroke-width="64.8" stroke-linecap="round" stroke-linejoin="miter" stroke-miterlimit="2.16000008583069" d="M0 23.4398C31.3567 13.2979 65.6147 40.1065 86.178 53.3334C186.959 273.068 897.708 -93.3967 1060.49 23.6979"/><path id="shape1" transform="matrix(1.2506668796738 0.057181054999033 -0.057181054999033 1.2506668796738 186.784431729099 34.6630002832824)" fill="none" stroke="#000000" stroke-width="64.8" stroke-linecap="round" stroke-linejoin="miter" stroke-miterlimit="2.16000008583069" d="M0 256.329C39.9972 219.191 142.163 -264.998 956.467 201.788"/><path id="shape2" transform="matrix(1.25197336911126 0 0 1.25197336911126 345.200026028399 229.285654782964)" fill="none" stroke="#000000" stroke-width="21.6" stroke-linecap="round" stroke-linejoin="miter" stroke-miterlimit="2.16000008583069" d="M0 91.2494C211.68 -35.7822 434.88 -4.18626 646.56 32.2094"/>
</svg>